<?xml version="1.0" standalone="no"?>
<!DOCTYPE svg PUBLIC "-//W3C//DTD SVG 20010904//EN"
 "http://www.w3.org/TR/2001/REC-SVG-20010904/DTD/svg10.dtd">
<svg version="1.0" xmlns="http://www.w3.org/2000/svg"
 width="500.000000pt" height="500.000000pt" viewBox="0 0 500.000000 500.000000"
 preserveAspectRatio="xMidYMid meet">

<g transform="translate(0.000000,500.000000) scale(0.100000,-0.100000)"
fill="#000000" stroke="none">
<path d="M0 2500 l0 -2500 2500 0 2500 0 0 2500 0 2500 -2500 0 -2500 0 0
-2500z m2771 1163 l259 -156 -2 -316 -3 -315 -261 -157 -261 -156 -267 161
-266 161 0 310 0 310 258 157 c141 86 263 157 271 157 7 1 130 -69 272 -156z
m-213 -1750 l2 -233 -25 0 c-19 0 -25 5 -25 21 0 11 -3 19 -7 17 -77 -39 -109
-50 -140 -45 -69 12 -95 57 -95 167 0 134 38 178 145 168 28 -3 60 -9 70 -13
15 -6 17 1 17 75 l0 81 28 -3 27 -3 3 -232z m-971 25 c33 -111 65 -204 70
-205 6 -2 36 85 68 194 32 109 61 202 65 206 4 5 19 7 33 5 l25 -3 -68 -217
c-38 -120 -71 -222 -75 -228 -3 -5 -26 -10 -50 -10 l-43 0 -21 63 c-46 144
-121 385 -121 391 0 3 13 6 29 6 28 0 28 0 88 -202z m560 48 c28 -24 28 -25
31 -165 l4 -141 -26 0 c-21 0 -26 5 -26 25 l0 26 -46 -27 c-50 -30 -113 -36
-151 -16 -32 18 -49 82 -35 130 15 50 42 62 142 62 l80 0 0 28 c0 45 -15 52
-117 52 -85 0 -93 2 -93 19 0 23 20 27 132 30 68 1 80 -2 105 -23z m1111 -1
l20 -25 43 25 c55 31 120 34 149 5 18 -18 20 -33 20 -165 l0 -145 -25 0 -25 0
0 121 c0 66 -5 129 -10 140 -15 26 -71 25 -115 -3 l-35 -23 0 -117 0 -118 -25
0 -25 0 0 114 c0 145 -7 166 -56 166 -20 0 -52 -9 -70 -21 l-34 -21 0 -119 0
-119 -30 0 -30 0 0 160 0 160 25 0 c18 0 25 -5 25 -20 0 -25 5 -25 38 -1 37
25 50 29 99 30 33 1 46 -4 61 -24z m-532 -110 c24 -66 44 -125 44 -132 0 -6 4
-14 9 -17 5 -3 30 57 57 134 46 135 49 140 76 140 15 0 28 -3 28 -7 0 -24
-137 -364 -157 -392 -26 -34 -86 -66 -103 -56 -18 11 -10 34 17 47 36 17 81
82 60 86 -9 2 -32 48 -55 110 -22 59 -50 131 -61 160 l-21 53 31 -3 c31 -3 33
-6 75 -123z m-679 -552 c15 -6 13 -8 -12 -13 -38 -7 -38 -21 -2 -38 20 -10 27
-20 25 -35 -2 -17 -10 -22 -38 -24 -33 -1 -33 -1 -6 5 40 10 43 28 7 47 -35
17 -40 39 -13 54 21 13 17 12 39 4z m333 -3 c12 -8 9 -10 -11 -10 -61 0 -64
-78 -4 -91 l30 -7 -30 -1 c-39 -1 -55 15 -55 55 0 23 7 38 22 48 26 19 28 19
48 6z m290 -25 c0 -7 -11 -27 -25 -44 l-26 -30 28 -4 c23 -3 21 -4 -9 -6 -44
-1 -47 7 -13 39 34 32 33 60 -2 61 -25 0 -25 1 -8 8 24 10 55 -4 55 -24z m108
1 c25 -51 -15 -108 -53 -76 -20 17 -19 75 1 95 21 20 36 15 52 -19z m106 18
c30 -30 13 -104 -24 -104 -37 0 -52 59 -24 98 18 26 27 27 48 6z m110 0 c17
-17 10 -40 -18 -64 -23 -18 -20 -28 12 -33 22 -3 20 -4 -10 -6 -44 -1 -47 7
-13 39 34 32 33 60 -2 60 -22 0 -25 2 -13 10 20 13 26 12 44 -6z m-877 -76
c-2 -18 -4 -6 -4 27 0 33 2 48 4 33 2 -15 2 -42 0 -60z m99 40 l29 -43 6 45 6
45 1 -57 c1 -32 -1 -58 -5 -58 -5 0 -21 21 -38 48 l-30 47 -6 -50 -6 -50 -1
58 c-1 31 2 57 7 57 4 0 21 -19 37 -42z m262 35 c-32 -5 -38 -33 -8 -33 11 0
20 -4 20 -10 0 -5 -9 -10 -20 -10 -33 0 -26 -38 8 -43 22 -3 20 -4 -10 -6
l-38 -1 0 55 0 55 38 -1 c30 -2 32 -3 10 -6z"/>
<path d="M2347 1943 c-35 -40 -33 -167 4 -204 25 -25 62 -24 110 3 l39 22 0
92 0 92 -31 6 c-57 11 -105 7 -122 -11z"/>
<path d="M1966 1824 c-35 -35 -10 -104 38 -104 12 0 42 10 66 23 40 19 45 26
48 60 l3 37 -70 0 c-50 0 -74 -4 -85 -16z"/>
<path d="M2725 1291 c-9 -30 5 -72 24 -69 11 2 17 16 19 46 3 36 0 42 -17 42
-11 0 -22 -9 -26 -19z"/>
<path d="M2842 1268 c3 -48 23 -61 37 -25 13 34 3 67 -21 67 -16 0 -19 -6 -16
-42z"/>
</g>
</svg>
